<svg xmlns="http://www.w3.org/2000/svg" version="1.1" xmlns:xlink="http://www.w3.org/1999/xlink" viewBox="0 0 200 200"><rect width="200" height="200" fill="url('#gradient')"></rect><defs><linearGradient id="gradient" gradientTransform="rotate(45 0.5 0.5)"><stop offset="0%" stop-color="#7dabaa"></stop><stop offset="100%" stop-color="#f5e8ce"></stop></linearGradient></defs><g><g fill="#2c1f37" transform="matrix(7.560295324036095,0,0,7.560295324036095,1.9016539533183305,153.75307562979054)" stroke="#15374d" stroke-width="0.2"><path d="M8.94 0L5.91-5.29L4.50-3.75L4.50 0L1.07 0L1.07-14.22L4.50-14.22L4.50-7.95L5.69-9.76L8.76-14.22L13.00-14.22L8.19-7.93L13.00 0L8.94 0ZM19.64 0L13.87 0L13.87-14.22L18.97-14.22Q21.72-14.22 23.15-13.21Q24.58-12.21 24.58-10.29L24.58-10.29Q24.58-9.19 24.07-8.41Q23.56-7.63 22.58-7.26L22.58-7.26Q23.69-6.96 24.29-6.16Q24.88-5.36 24.88-4.21L24.88-4.21Q24.88-2.12 23.56-1.07Q22.24-0.02 19.64 0L19.64 0ZM19.70-6.04L17.29-6.04L17.29-2.64L19.54-2.64Q20.47-2.64 20.97-3.06Q21.46-3.49 21.46-4.26L21.46-4.26Q21.46-6.04 19.70-6.04L19.70-6.04ZM17.29-11.57L17.29-8.29L19.08-8.29Q20.21-8.30 20.68-8.70Q21.16-9.10 21.16-9.88L21.16-9.88Q21.16-10.78 20.64-11.18Q20.13-11.57 18.97-11.57L18.97-11.57L17.29-11.57Z"></path></g></g></svg>